<?xml version="1.0" encoding="UTF-8"?> <svg xmlns="http://www.w3.org/2000/svg" xmlns:xlink="http://www.w3.org/1999/xlink" width="375" zoomAndPan="magnify" viewBox="0 0 375 374.999991" height="374.999991" preserveAspectRatio="xMidYMid meet" version="1.0"><path fill="rgb(100%, 9.01947%, 26.669312%)" d="M 345.617188 231.664062 C 308.441406 119.09375 223.214844 201.707031 223.214844 201.707031 C 223.214844 201.707031 211.429688 202.613281 197.828125 207.152344 C 168.816406 179.011719 114.417969 196.257812 114.417969 196.257812 C 114.417969 196.257812 13.777344 162.667969 25.566406 275.242188 C 31.003906 323.359375 68.179688 354.226562 119.859375 354.226562 C 146.152344 354.226562 168.816406 346.054688 185.136719 332.4375 C 212.335938 356.949219 252.230469 361.488281 292.121094 343.332031 C 341.082031 321.542969 361.027344 277.964844 345.617188 231.664062 Z M 345.617188 231.664062 " fill-opacity="1" fill-rule="nonzero"></path><path fill="rgb(83.529663%, 0%, 0%)" d="M 239.535156 284.320312 C 235.910156 248.914062 264.015625 184.457031 287.589844 172.65625 C 254.949219 171.746094 223.214844 201.707031 223.214844 201.707031 C 223.214844 201.707031 212.335938 202.613281 198.738281 207.152344 C 197.828125 206.246094 196.921875 206.246094 196.015625 206.246094 C 208.710938 218.046875 216.871094 239.835938 213.242188 275.242188 C 210.523438 298.847656 200.550781 317.910156 185.136719 331.527344 C 198.738281 344.238281 231.375 367.84375 292.121094 343.332031 C 264.015625 337.882812 243.164062 319.726562 239.535156 284.320312 Z M 239.535156 284.320312 " fill-opacity="1" fill-rule="nonzero"></path><path fill="rgb(100%, 80.389404%, 82.348633%)" d="M 61.832031 280.6875 C 58.203125 280.6875 53.671875 277.964844 52.765625 273.425781 C 43.699219 236.203125 65.457031 220.773438 74.523438 215.324219 C 79.058594 212.601562 84.496094 214.417969 86.3125 218.957031 C 89.03125 223.496094 87.21875 228.941406 82.683594 230.757812 C 73.617188 235.296875 64.550781 245.285156 69.992188 267.980469 C 70.898438 272.519531 68.179688 277.964844 63.644531 278.875 C 62.738281 280.6875 62.738281 280.6875 61.832031 280.6875 Z M 61.832031 280.6875 " fill-opacity="1" fill-rule="nonzero"></path><path fill="rgb(47.44873%, 33.329773%, 28.239441%)" d="M 231.375 184.457031 C 230.46875 181.734375 229.5625 179.917969 228.65625 177.195312 C 228.65625 176.289062 227.75 175.378906 227.75 174.472656 C 226.84375 172.65625 226.84375 170.839844 225.9375 169.933594 C 225.03125 168.117188 225.03125 167.207031 224.125 165.394531 C 223.214844 163.578125 223.214844 162.667969 223.214844 160.855469 C 222.308594 159.039062 222.308594 157.222656 221.402344 156.316406 C 220.496094 154.5 220.496094 152.683594 219.589844 150.867188 C 219.589844 149.960938 218.683594 149.050781 218.683594 148.144531 C 217.777344 146.328125 217.777344 144.511719 217.777344 142.695312 C 217.777344 141.789062 217.777344 140.882812 216.871094 139.972656 C 216.871094 138.15625 215.964844 136.34375 215.964844 134.527344 C 215.964844 133.617188 215.964844 132.710938 215.054688 131.804688 C 215.054688 129.988281 214.148438 128.171875 214.148438 126.355469 C 214.148438 125.449219 214.148438 124.539062 214.148438 124.539062 C 214.148438 122.722656 214.148438 120.910156 214.148438 119.09375 C 214.148438 118.183594 214.148438 117.277344 214.148438 116.371094 C 214.148438 114.554688 214.148438 112.738281 214.148438 110.921875 C 214.148438 110.015625 214.148438 110.015625 214.148438 109.105469 C 214.148438 107.289062 214.148438 105.476562 214.148438 103.660156 C 214.148438 102.75 214.148438 101.84375 214.148438 101.84375 C 214.148438 100.027344 214.148438 99.121094 214.148438 97.304688 C 214.148438 96.398438 214.148438 95.488281 214.148438 94.582031 C 214.148438 93.671875 214.148438 91.859375 214.148438 90.949219 C 214.148438 90.042969 214.148438 89.132812 214.148438 88.226562 C 214.148438 87.316406 214.148438 86.410156 214.148438 85.503906 C 214.148438 84.59375 214.148438 83.6875 215.054688 81.871094 C 215.054688 80.964844 215.054688 80.964844 215.054688 80.054688 C 215.054688 79.148438 215.964844 77.332031 215.964844 76.425781 C 215.964844 75.515625 215.964844 75.515625 215.964844 74.609375 C 215.964844 72.792969 216.871094 71.886719 216.871094 70.070312 C 216.871094 70.070312 216.871094 69.160156 216.871094 69.160156 C 216.871094 67.347656 217.777344 66.4375 217.777344 64.621094 C 223.214844 45.558594 232.28125 32.847656 235.910156 28.308594 C 236.816406 28.308594 237.722656 27.402344 237.722656 27.402344 C 242.257812 25.585938 244.070312 20.136719 242.257812 15.597656 C 240.441406 11.058594 237.722656 7.429688 233.191406 9.242188 C 233.191406 9.242188 232.28125 9.242188 232.28125 10.152344 C 231.375 10.152344 230.46875 10.152344 229.5625 11.058594 C 228.65625 11.058594 228.65625 11.96875 227.75 12.875 C 101.722656 70.070312 106.257812 208.0625 106.257812 208.96875 C 106.257812 213.507812 110.789062 218.046875 115.324219 218.046875 C 120.765625 218.046875 124.390625 213.507812 124.390625 208.96875 C 124.390625 208.0625 120.765625 102.75 207.804688 43.742188 C 194.203125 77.332031 183.324219 135.433594 225.03125 213.507812 C 226.84375 216.230469 229.5625 218.046875 233.191406 218.046875 C 235.003906 218.046875 235.910156 218.046875 237.722656 217.140625 C 241.351562 215.324219 243.164062 211.691406 242.257812 208.0625 C 242.257812 207.152344 241.351562 205.339844 241.351562 204.429688 C 239.535156 200.800781 237.722656 197.167969 235.910156 194.445312 C 235.910156 194.445312 235.910156 193.535156 235.910156 193.535156 C 234.097656 190.8125 232.28125 187.179688 231.375 184.457031 Z M 231.375 184.457031 " fill-opacity="1" fill-rule="nonzero"></path><path fill="rgb(29.798889%, 68.629456%, 31.369019%)" d="M 314.789062 127.261719 C 298.46875 110.015625 341.082031 9.242188 233.191406 9.242188 C 171.535156 129.078125 314.789062 127.261719 314.789062 127.261719 Z M 314.789062 127.261719 " fill-opacity="1" fill-rule="nonzero"></path></svg> 