<?xml version="1.0" encoding="UTF-8"?> <svg xmlns="http://www.w3.org/2000/svg" xmlns:xlink="http://www.w3.org/1999/xlink" width="450pt" zoomAndPan="magnify" viewBox="0 0 450 112.499997" height="112.499997pt" preserveAspectRatio="xMidYMid meet" version="1.2"><defs><g></g><clipPath xml:id="clip1" id="clip1"><path d="M 0.996094 0 L 449.003906 0 L 449.003906 112.003906 L 0.996094 112.003906 Z M 0.996094 0 "></path></clipPath><clipPath xml:id="clip2" id="clip2"><path d="M 20 17.644531 L 64 17.644531 L 64 69 L 20 69 Z M 20 17.644531 "></path></clipPath><clipPath xml:id="clip3" id="clip3"><path d="M 44 60 L 78.652344 60 L 78.652344 94.550781 L 44 94.550781 Z M 44 60 "></path></clipPath><clipPath xml:id="clip4" id="clip4"><path d="M 12.195312 60 L 47 60 L 47 94.550781 L 12.195312 94.550781 Z M 12.195312 60 "></path></clipPath></defs><g xml:id="surface1" id="surface1"><g clip-rule="nonzero" clip-path="url(#clip1)"><path style=" stroke:none;fill-rule:nonzero;fill:rgb(100%,100%,100%);fill-opacity:1;" d="M 0.996094 0 L 449.003906 0 L 449.003906 119.46875 L 0.996094 119.46875 Z M 0.996094 0 "></path><path style=" stroke:none;fill-rule:nonzero;fill:rgb(100%,100%,100%);fill-opacity:1;" d="M 0.996094 0 L 449.003906 0 L 449.003906 112.003906 L 0.996094 112.003906 Z M 0.996094 0 "></path><path style=" stroke:none;fill-rule:nonzero;fill:rgb(100%,100%,100%);fill-opacity:1;" d="M 0.996094 0 L 449.003906 0 L 449.003906 112.003906 L 0.996094 112.003906 Z M 0.996094 0 "></path></g><g clip-rule="nonzero" clip-path="url(#clip2)"><path style=" stroke:none;fill-rule:nonzero;fill:rgb(46.669006%,69.799805%,33.329773%);fill-opacity:1;" d="M 61.441406 68.988281 C 61.019531 68.988281 60.59375 68.859375 60.21875 68.601562 C 46.242188 58.84375 34.230469 42.257812 27.328125 31.449219 C 30.960938 53.878906 29.460938 66.511719 29.382812 67.121094 C 29.238281 68.289062 28.183594 69.101562 27.003906 68.96875 C 25.832031 68.824219 25 67.761719 25.148438 66.59375 C 25.164062 66.425781 27.144531 49.480469 20.902344 20.433594 C 20.679688 19.394531 21.257812 18.347656 22.257812 17.984375 C 23.253906 17.621094 24.375 18.046875 24.878906 18.984375 C 25.046875 19.296875 41.980469 50.667969 62.667969 65.109375 C 63.636719 65.785156 63.867188 67.113281 63.195312 68.078125 C 62.78125 68.671875 62.117188 68.988281 61.441406 68.988281 Z M 61.441406 68.988281 "></path></g><path style=" stroke:none;fill-rule:nonzero;fill:rgb(36.079407%,56.858826%,23.139954%);fill-opacity:1;" d="M 62.613281 36.640625 C 55.1875 38.6875 51.824219 42.066406 39.652344 38.0625 C 29.570312 34.746094 24.617188 29.101562 26.097656 24.632812 C 27.574219 20.160156 32.890625 17.890625 42.972656 21.210938 C 53.117188 24.546875 51.78125 28.59375 62.613281 36.640625 Z M 62.613281 36.640625 "></path><g clip-rule="nonzero" clip-path="url(#clip3)"><path style=" stroke:none;fill-rule:nonzero;fill:rgb(100%,8.628845%,8.628845%);fill-opacity:1;" d="M 78.535156 77.507812 C 78.535156 78.066406 78.507812 78.625 78.453125 79.179688 C 78.398438 79.734375 78.316406 80.285156 78.207031 80.832031 C 78.097656 81.378906 77.960938 81.921875 77.796875 82.457031 C 77.636719 82.988281 77.445312 83.515625 77.234375 84.03125 C 77.019531 84.546875 76.78125 85.050781 76.515625 85.542969 C 76.253906 86.035156 75.964844 86.511719 75.652344 86.976562 C 75.34375 87.441406 75.011719 87.890625 74.65625 88.320312 C 74.300781 88.75 73.925781 89.164062 73.527344 89.558594 C 73.132812 89.953125 72.71875 90.328125 72.285156 90.683594 C 71.851562 91.035156 71.402344 91.367188 70.9375 91.679688 C 70.472656 91.988281 69.992188 92.277344 69.5 92.539062 C 69.007812 92.800781 68.5 93.039062 67.984375 93.253906 C 67.46875 93.46875 66.941406 93.65625 66.40625 93.816406 C 65.871094 93.980469 65.328125 94.113281 64.777344 94.222656 C 64.230469 94.332031 63.675781 94.414062 63.121094 94.46875 C 62.5625 94.523438 62.003906 94.550781 61.445312 94.550781 C 60.882812 94.550781 60.328125 94.523438 59.769531 94.46875 C 59.210938 94.414062 58.660156 94.332031 58.109375 94.222656 C 57.5625 94.113281 57.019531 93.980469 56.484375 93.816406 C 55.949219 93.65625 55.421875 93.46875 54.90625 93.253906 C 54.386719 93.039062 53.882812 92.800781 53.386719 92.539062 C 52.894531 92.277344 52.414062 91.988281 51.949219 91.679688 C 51.484375 91.367188 51.035156 91.035156 50.601562 90.683594 C 50.171875 90.328125 49.757812 89.953125 49.359375 89.558594 C 48.964844 89.164062 48.589844 88.75 48.234375 88.320312 C 47.878906 87.890625 47.546875 87.441406 47.234375 86.976562 C 46.925781 86.511719 46.636719 86.035156 46.371094 85.542969 C 46.109375 85.050781 45.871094 84.546875 45.65625 84.03125 C 45.441406 83.515625 45.253906 82.988281 45.089844 82.457031 C 44.929688 81.921875 44.792969 81.378906 44.683594 80.832031 C 44.574219 80.285156 44.492188 79.734375 44.4375 79.179688 C 44.382812 78.625 44.355469 78.066406 44.355469 77.507812 C 44.355469 76.949219 44.382812 76.394531 44.4375 75.835938 C 44.492188 75.28125 44.574219 74.730469 44.683594 74.183594 C 44.792969 73.636719 44.929688 73.09375 45.089844 72.5625 C 45.253906 72.027344 45.441406 71.5 45.65625 70.984375 C 45.871094 70.46875 46.109375 69.964844 46.371094 69.472656 C 46.636719 68.980469 46.925781 68.503906 47.234375 68.039062 C 47.546875 67.574219 47.878906 67.128906 48.234375 66.695312 C 48.589844 66.265625 48.964844 65.851562 49.359375 65.457031 C 49.757812 65.0625 50.171875 64.6875 50.601562 64.332031 C 51.035156 63.980469 51.484375 63.648438 51.949219 63.335938 C 52.414062 63.027344 52.894531 62.742188 53.386719 62.476562 C 53.882812 62.214844 54.386719 61.976562 54.90625 61.761719 C 55.421875 61.546875 55.949219 61.359375 56.484375 61.199219 C 57.019531 61.035156 57.5625 60.902344 58.109375 60.792969 C 58.660156 60.683594 59.210938 60.601562 59.769531 60.546875 C 60.328125 60.492188 60.882812 60.464844 61.445312 60.464844 C 62.003906 60.464844 62.5625 60.492188 63.121094 60.546875 C 63.675781 60.601562 64.230469 60.683594 64.777344 60.792969 C 65.328125 60.902344 65.871094 61.035156 66.40625 61.199219 C 66.941406 61.359375 67.46875 61.546875 67.984375 61.761719 C 68.5 61.976562 69.007812 62.214844 69.5 62.476562 C 69.992188 62.742188 70.472656 63.027344 70.9375 63.335938 C 71.402344 63.648438 71.851562 63.980469 72.285156 64.332031 C 72.71875 64.6875 73.132812 65.0625 73.527344 65.457031 C 73.925781 65.851562 74.300781 66.265625 74.65625 66.695312 C 75.011719 67.128906 75.34375 67.574219 75.652344 68.039062 C 75.964844 68.503906 76.253906 68.980469 76.515625 69.472656 C 76.78125 69.964844 77.019531 70.46875 77.234375 70.984375 C 77.445312 71.5 77.636719 72.027344 77.796875 72.5625 C 77.960938 73.09375 78.097656 73.636719 78.207031 74.183594 C 78.316406 74.730469 78.398438 75.28125 78.453125 75.835938 C 78.507812 76.394531 78.535156 76.949219 78.535156 77.507812 Z M 78.535156 77.507812 "></path></g><g clip-rule="nonzero" clip-path="url(#clip4)"><path style=" stroke:none;fill-rule:nonzero;fill:rgb(100%,8.628845%,8.628845%);fill-opacity:1;" d="M 46.492188 77.507812 C 46.492188 78.066406 46.464844 78.625 46.410156 79.179688 C 46.355469 79.734375 46.273438 80.285156 46.164062 80.832031 C 46.054688 81.378906 45.917969 81.921875 45.753906 82.457031 C 45.59375 82.988281 45.40625 83.515625 45.191406 84.03125 C 44.976562 84.546875 44.738281 85.050781 44.472656 85.542969 C 44.210938 86.035156 43.921875 86.511719 43.609375 86.976562 C 43.300781 87.441406 42.96875 87.890625 42.613281 88.320312 C 42.257812 88.75 41.882812 89.164062 41.484375 89.558594 C 41.089844 89.953125 40.675781 90.328125 40.242188 90.683594 C 39.8125 91.035156 39.363281 91.367188 38.894531 91.679688 C 38.429688 91.988281 37.953125 92.277344 37.457031 92.539062 C 36.964844 92.800781 36.457031 93.039062 35.941406 93.253906 C 35.425781 93.46875 34.898438 93.65625 34.363281 93.816406 C 33.828125 93.980469 33.285156 94.113281 32.734375 94.222656 C 32.1875 94.332031 31.632812 94.414062 31.078125 94.46875 C 30.519531 94.523438 29.960938 94.550781 29.402344 94.550781 C 28.84375 94.550781 28.285156 94.523438 27.726562 94.46875 C 27.167969 94.414062 26.617188 94.332031 26.066406 94.222656 C 25.519531 94.113281 24.976562 93.980469 24.441406 93.816406 C 23.90625 93.65625 23.378906 93.46875 22.863281 93.253906 C 22.34375 93.039062 21.839844 92.800781 21.347656 92.539062 C 20.851562 92.277344 20.371094 91.988281 19.90625 91.679688 C 19.441406 91.367188 18.992188 91.035156 18.558594 90.683594 C 18.128906 90.328125 17.714844 89.953125 17.316406 89.558594 C 16.921875 89.164062 16.546875 88.75 16.191406 88.320312 C 15.835938 87.890625 15.503906 87.441406 15.191406 86.976562 C 14.882812 86.511719 14.59375 86.035156 14.332031 85.542969 C 14.066406 85.050781 13.828125 84.546875 13.613281 84.03125 C 13.398438 83.515625 13.210938 82.988281 13.046875 82.457031 C 12.886719 81.921875 12.75 81.378906 12.640625 80.832031 C 12.53125 80.285156 12.449219 79.734375 12.394531 79.179688 C 12.339844 78.625 12.3125 78.066406 12.3125 77.507812 C 12.3125 76.949219 12.339844 76.394531 12.394531 75.835938 C 12.449219 75.28125 12.53125 74.730469 12.640625 74.183594 C 12.75 73.636719 12.886719 73.09375 13.046875 72.5625 C 13.210938 72.027344 13.398438 71.5 13.613281 70.984375 C 13.828125 70.46875 14.066406 69.964844 14.332031 69.472656 C 14.59375 68.980469 14.882812 68.503906 15.191406 68.039062 C 15.503906 67.574219 15.835938 67.128906 16.191406 66.695312 C 16.546875 66.265625 16.921875 65.851562 17.316406 65.457031 C 17.714844 65.0625 18.128906 64.6875 18.558594 64.332031 C 18.992188 63.980469 19.441406 63.648438 19.90625 63.335938 C 20.371094 63.027344 20.851562 62.742188 21.347656 62.476562 C 21.839844 62.214844 22.34375 61.976562 22.863281 61.761719 C 23.378906 61.546875 23.90625 61.359375 24.441406 61.199219 C 24.976562 61.035156 25.519531 60.902344 26.066406 60.792969 C 26.617188 60.683594 27.167969 60.601562 27.726562 60.546875 C 28.285156 60.492188 28.84375 60.464844 29.402344 60.464844 C 29.960938 60.464844 30.519531 60.492188 31.078125 60.546875 C 31.632812 60.601562 32.1875 60.683594 32.734375 60.792969 C 33.285156 60.902344 33.828125 61.035156 34.363281 61.199219 C 34.898438 61.359375 35.425781 61.546875 35.941406 61.761719 C 36.457031 61.976562 36.964844 62.214844 37.457031 62.476562 C 37.953125 62.742188 38.429688 63.027344 38.894531 63.335938 C 39.363281 63.648438 39.8125 63.980469 40.242188 64.332031 C 40.675781 64.6875 41.089844 65.0625 41.484375 65.457031 C 41.882812 65.851562 42.257812 66.265625 42.613281 66.695312 C 42.96875 67.128906 43.300781 67.574219 43.609375 68.039062 C 43.921875 68.503906 44.210938 68.980469 44.472656 69.472656 C 44.738281 69.964844 44.976562 70.46875 45.191406 70.984375 C 45.40625 71.5 45.59375 72.027344 45.753906 72.5625 C 45.917969 73.09375 46.054688 73.636719 46.164062 74.183594 C 46.273438 74.730469 46.355469 75.28125 46.410156 75.835938 C 46.464844 76.394531 46.492188 76.949219 46.492188 77.507812 Z M 46.492188 77.507812 "></path></g><g style="fill:rgb(0%,0%,0%);fill-opacity:1;"><g transform="translate(91.164278, 77.228281)"><path style="stroke:none;" d="M 23.84375 -26.578125 L 47.6875 0.0625 L 37.828125 0.0625 L 19.015625 -21.75 L 11.1875 -13.921875 L 11.1875 0 L 3.921875 0 L 3.921875 -49.578125 L 11.1875 -49.578125 L 11.1875 -22.9375 L 16.640625 -28.734375 L 37.265625 -49.578125 L 46.84375 -49.578125 Z M 23.84375 -26.578125 "></path></g></g><g style="fill:rgb(0%,0%,0%);fill-opacity:1;"><g transform="translate(140.111697, 77.228281)"><path style="stroke:none;" d="M 10.984375 0 L 4.203125 0 L 4.203125 -33.5 L 10.90625 -33.5 Z M 7.546875 -40.765625 C 6.335938 -40.765625 5.3125 -41.195312 4.46875 -42.0625 C 3.632812 -42.925781 3.21875 -43.960938 3.21875 -45.171875 C 3.21875 -46.378906 3.632812 -47.398438 4.46875 -48.234375 C 5.3125 -49.078125 6.335938 -49.5 7.546875 -49.5 C 8.765625 -49.5 9.789062 -49.078125 10.625 -48.234375 C 11.46875 -47.398438 11.890625 -46.378906 11.890625 -45.171875 C 11.890625 -43.960938 11.46875 -42.925781 10.625 -42.0625 C 9.789062 -41.195312 8.765625 -40.765625 7.546875 -40.765625 Z M 7.546875 -40.765625 "></path></g></g><g style="fill:rgb(0%,0%,0%);fill-opacity:1;"><g transform="translate(154.795923, 77.228281)"><path style="stroke:none;" d="M 10.5625 0 L 3.78125 0 L 3.78125 -33.5 L 9.15625 -33.5 L 10.5625 -30.5625 C 11.675781 -31.632812 13.023438 -32.519531 14.609375 -33.21875 C 16.191406 -33.914062 17.914062 -34.265625 19.78125 -34.265625 C 21 -34.265625 22.375 -34.078125 23.90625 -33.703125 C 25.445312 -33.328125 26.878906 -32.625 28.203125 -31.59375 C 29.535156 -30.570312 30.65625 -29.148438 31.5625 -27.328125 C 32.476562 -25.515625 32.9375 -23.164062 32.9375 -20.28125 L 32.9375 0 L 26.5 0 L 26.5 -20.34375 C 26.5 -21.789062 26.273438 -23.015625 25.828125 -24.015625 C 25.390625 -25.015625 24.804688 -25.816406 24.078125 -26.421875 C 23.359375 -27.035156 22.546875 -27.46875 21.640625 -27.71875 C 20.734375 -27.976562 19.789062 -28.109375 18.8125 -28.109375 C 18.0625 -28.109375 17.207031 -27.96875 16.25 -27.6875 C 15.300781 -27.40625 14.40625 -26.945312 13.5625 -26.3125 C 12.726562 -25.6875 12.019531 -24.894531 11.4375 -23.9375 C 10.851562 -22.988281 10.5625 -21.816406 10.5625 -20.421875 Z M 10.5625 0 "></path></g></g><g style="fill:rgb(0%,0%,0%);fill-opacity:1;"><g transform="translate(192.13581, 77.228281)"><path style="stroke:none;" d="M 19.15625 -1.671875 C 16.820312 -1.671875 14.675781 -2.101562 12.71875 -2.96875 C 10.769531 -3.832031 9.070312 -5.019531 7.625 -6.53125 C 6.175781 -8.050781 5.039062 -9.800781 4.21875 -11.78125 C 3.40625 -13.757812 3 -15.867188 3 -18.109375 C 3 -20.347656 3.40625 -22.445312 4.21875 -24.40625 C 5.039062 -26.363281 6.175781 -28.078125 7.625 -29.546875 C 9.070312 -31.015625 10.769531 -32.164062 12.71875 -33 C 14.675781 -33.84375 16.820312 -34.265625 19.15625 -34.265625 C 21.488281 -34.265625 23.515625 -33.914062 25.234375 -33.21875 C 26.960938 -32.519531 28.476562 -31.515625 29.78125 -30.203125 L 31.1875 -33.5 L 36.5 -33.5 C 36.5 -33.351562 36.5 -33.175781 36.5 -32.96875 C 36.5 -32.757812 36.5 -32.347656 36.5 -31.734375 C 36.5 -31.128906 36.5 -30.269531 36.5 -29.15625 C 36.5 -28.039062 36.5 -26.503906 36.5 -24.546875 C 36.5 -22.585938 36.507812 -20.140625 36.53125 -17.203125 C 36.550781 -14.265625 36.5625 -10.695312 36.5625 -6.5 C 36.5625 -5.101562 36.515625 -3.738281 36.421875 -2.40625 C 36.335938 -1.082031 36.140625 0.191406 35.828125 1.421875 C 35.523438 2.660156 35.082031 3.851562 34.5 5 C 33.914062 6.144531 33.140625 7.253906 32.171875 8.328125 C 30.304688 10.273438 28.195312 11.585938 25.84375 12.265625 C 23.488281 12.941406 21.003906 13.28125 18.390625 13.28125 C 16.148438 13.28125 14.039062 13 12.0625 12.4375 C 10.082031 11.882812 8.300781 11.140625 6.71875 10.203125 L 6.71875 2.65625 C 7.644531 4.007812 9.097656 5.101562 11.078125 5.9375 C 13.054688 6.78125 15.304688 7.203125 17.828125 7.203125 C 19.503906 7.203125 21.066406 6.976562 22.515625 6.53125 C 23.960938 6.09375 25.222656 5.414062 26.296875 4.5 C 27.367188 3.59375 28.21875 2.414062 28.84375 0.96875 C 29.46875 -0.46875 29.78125 -2.191406 29.78125 -4.203125 L 29.78125 -5.53125 C 29.226562 -5.007812 28.539062 -4.515625 27.71875 -4.046875 C 26.90625 -3.585938 26.019531 -3.179688 25.0625 -2.828125 C 24.113281 -2.484375 23.125 -2.203125 22.09375 -1.984375 C 21.070312 -1.773438 20.09375 -1.671875 19.15625 -1.671875 Z M 19.78125 -28.109375 C 18.4375 -28.109375 17.15625 -27.851562 15.9375 -27.34375 C 14.726562 -26.832031 13.664062 -26.117188 12.75 -25.203125 C 11.84375 -24.296875 11.132812 -23.234375 10.625 -22.015625 C 10.113281 -20.804688 9.859375 -19.503906 9.859375 -18.109375 C 9.859375 -16.710938 10.113281 -15.394531 10.625 -14.15625 C 11.132812 -12.925781 11.84375 -11.851562 12.75 -10.9375 C 13.664062 -10.03125 14.726562 -9.304688 15.9375 -8.765625 C 17.15625 -8.234375 18.4375 -7.96875 19.78125 -7.96875 C 21.132812 -7.96875 22.414062 -8.175781 23.625 -8.59375 C 24.84375 -9.019531 25.894531 -9.648438 26.78125 -10.484375 C 27.664062 -11.328125 28.363281 -12.375 28.875 -13.625 C 29.382812 -14.882812 29.640625 -16.378906 29.640625 -18.109375 C 29.640625 -19.929688 29.382812 -21.484375 28.875 -22.765625 C 28.363281 -24.046875 27.664062 -25.082031 26.78125 -25.875 C 25.894531 -26.664062 24.84375 -27.234375 23.625 -27.578125 C 22.414062 -27.929688 21.132812 -28.109375 19.78125 -28.109375 Z M 19.78125 -28.109375 "></path></g></g><g style="fill:rgb(0%,0%,0%);fill-opacity:1;"><g transform="translate(233.461411, 77.228281)"><path style="stroke:none;" d="M 44.8125 0 L 35.65625 0 L 20.0625 -21.390625 L 11.390625 -21.390625 L 11.390625 0 L 4.0625 0 L 4.0625 -49.578125 L 24.1875 -49.578125 C 26.144531 -49.578125 28 -49.203125 29.75 -48.453125 C 31.5 -47.710938 33.015625 -46.710938 34.296875 -45.453125 C 35.578125 -44.191406 36.585938 -42.707031 37.328125 -41 C 38.078125 -39.300781 38.453125 -37.472656 38.453125 -35.515625 C 38.453125 -33.890625 38.195312 -32.351562 37.6875 -30.90625 C 37.175781 -29.457031 36.460938 -28.148438 35.546875 -26.984375 C 34.640625 -25.816406 33.554688 -24.800781 32.296875 -23.9375 C 31.046875 -23.082031 29.671875 -22.445312 28.171875 -22.03125 Z M 24.1875 -28.25 C 25.164062 -28.25 26.097656 -28.445312 26.984375 -28.84375 C 27.867188 -29.238281 28.625 -29.757812 29.25 -30.40625 C 29.882812 -31.0625 30.390625 -31.84375 30.765625 -32.75 C 31.140625 -33.664062 31.328125 -34.632812 31.328125 -35.65625 C 31.328125 -36.6875 31.140625 -37.644531 30.765625 -38.53125 C 30.390625 -39.414062 29.882812 -40.195312 29.25 -40.875 C 28.625 -41.550781 27.867188 -42.085938 26.984375 -42.484375 C 26.097656 -42.878906 25.164062 -43.078125 24.1875 -43.078125 L 11.390625 -43.078125 L 11.390625 -28.171875 Z M 24.1875 -28.25 "></path></g></g><g style="fill:rgb(0%,0%,0%);fill-opacity:1;"><g transform="translate(279.332143, 77.228281)"><path style="stroke:none;" d="M 19.78125 0.84375 C 17.363281 0.84375 15.09375 0.390625 12.96875 -0.515625 C 10.851562 -1.429688 9 -2.679688 7.40625 -4.265625 C 5.820312 -5.847656 4.578125 -7.710938 3.671875 -9.859375 C 2.765625 -12.003906 2.3125 -14.289062 2.3125 -16.71875 C 2.3125 -19.132812 2.738281 -21.414062 3.59375 -23.5625 C 4.457031 -25.707031 5.625 -27.570312 7.09375 -29.15625 C 8.5625 -30.738281 10.273438 -31.984375 12.234375 -32.890625 C 14.191406 -33.804688 16.289062 -34.265625 18.53125 -34.265625 C 20.8125 -34.265625 22.921875 -33.867188 24.859375 -33.078125 C 26.796875 -32.285156 28.472656 -31.046875 29.890625 -29.359375 C 31.316406 -27.679688 32.425781 -25.550781 33.21875 -22.96875 C 34.007812 -20.382812 34.40625 -17.296875 34.40625 -13.703125 L 9.515625 -13.703125 C 9.835938 -12.492188 10.347656 -11.363281 11.046875 -10.3125 C 11.742188 -9.257812 12.570312 -8.347656 13.53125 -7.578125 C 14.488281 -6.816406 15.5625 -6.222656 16.75 -5.796875 C 17.9375 -5.378906 19.179688 -5.171875 20.484375 -5.171875 C 22.253906 -5.171875 23.894531 -5.492188 25.40625 -6.140625 C 26.925781 -6.796875 28.222656 -7.660156 29.296875 -8.734375 L 33.5 -4.546875 C 31.863281 -2.910156 29.867188 -1.601562 27.515625 -0.625 C 25.160156 0.351562 22.582031 0.84375 19.78125 0.84375 Z M 18.53125 -28.109375 C 17.457031 -28.109375 16.441406 -27.894531 15.484375 -27.46875 C 14.523438 -27.050781 13.640625 -26.46875 12.828125 -25.71875 C 12.015625 -24.976562 11.316406 -24.09375 10.734375 -23.0625 C 10.148438 -22.039062 9.71875 -20.925781 9.4375 -19.71875 L 27.125 -19.71875 C 27.03125 -20.832031 26.773438 -21.898438 26.359375 -22.921875 C 25.941406 -23.953125 25.359375 -24.851562 24.609375 -25.625 C 23.867188 -26.394531 22.992188 -27 21.984375 -27.4375 C 20.984375 -27.882812 19.832031 -28.109375 18.53125 -28.109375 Z M 18.53125 -28.109375 "></path></g></g><g style="fill:rgb(0%,0%,0%);fill-opacity:1;"><g transform="translate(316.392339, 77.228281)"><path style="stroke:none;" d="M 19.296875 0.84375 C 16.960938 0.84375 14.78125 0.390625 12.75 -0.515625 C 10.726562 -1.429688 8.957031 -2.679688 7.4375 -4.265625 C 5.925781 -5.847656 4.726562 -7.710938 3.84375 -9.859375 C 2.957031 -12.003906 2.515625 -14.289062 2.515625 -16.71875 C 2.515625 -19.132812 2.957031 -21.414062 3.84375 -23.5625 C 4.726562 -25.707031 5.925781 -27.570312 7.4375 -29.15625 C 8.957031 -30.738281 10.726562 -31.984375 12.75 -32.890625 C 14.78125 -33.804688 16.960938 -34.265625 19.296875 -34.265625 C 22.003906 -34.265625 24.5 -33.65625 26.78125 -32.4375 C 29.0625 -31.226562 30.972656 -29.578125 32.515625 -27.484375 L 27.765625 -23.78125 C 26.828125 -25.125 25.644531 -26.179688 24.21875 -26.953125 C 22.800781 -27.722656 21.273438 -28.109375 19.640625 -28.109375 C 18.242188 -28.109375 16.914062 -27.816406 15.65625 -27.234375 C 14.40625 -26.648438 13.3125 -25.84375 12.375 -24.8125 C 11.445312 -23.789062 10.710938 -22.582031 10.171875 -21.1875 C 9.640625 -19.789062 9.375 -18.300781 9.375 -16.71875 C 9.375 -15.125 9.640625 -13.628906 10.171875 -12.234375 C 10.710938 -10.835938 11.445312 -9.613281 12.375 -8.5625 C 13.3125 -7.519531 14.40625 -6.691406 15.65625 -6.078125 C 16.914062 -5.472656 18.242188 -5.171875 19.640625 -5.171875 C 21.460938 -5.171875 23.117188 -5.660156 24.609375 -6.640625 C 26.097656 -7.617188 27.3125 -8.925781 28.25 -10.5625 L 32.859375 -6.5 C 31.367188 -4.257812 29.4375 -2.472656 27.0625 -1.140625 C 24.6875 0.179688 22.097656 0.84375 19.296875 0.84375 Z M 19.296875 0.84375 "></path></g></g><g style="fill:rgb(0%,0%,0%);fill-opacity:1;"><g transform="translate(351.914181, 77.228281)"><path style="stroke:none;" d="M 10.984375 0 L 4.203125 0 L 4.203125 -33.5 L 10.90625 -33.5 Z M 7.546875 -40.765625 C 6.335938 -40.765625 5.3125 -41.195312 4.46875 -42.0625 C 3.632812 -42.925781 3.21875 -43.960938 3.21875 -45.171875 C 3.21875 -46.378906 3.632812 -47.398438 4.46875 -48.234375 C 5.3125 -49.078125 6.335938 -49.5 7.546875 -49.5 C 8.765625 -49.5 9.789062 -49.078125 10.625 -48.234375 C 11.46875 -47.398438 11.890625 -46.378906 11.890625 -45.171875 C 11.890625 -43.960938 11.46875 -42.925781 10.625 -42.0625 C 9.789062 -41.195312 8.765625 -40.765625 7.546875 -40.765625 Z M 7.546875 -40.765625 "></path></g></g><g style="fill:rgb(0%,0%,0%);fill-opacity:1;"><g transform="translate(366.598407, 77.228281)"><path style="stroke:none;" d="M 3.921875 13.84375 L 3.921875 -33.5 L 9.296875 -33.5 L 10.703125 -30 C 12.046875 -31.351562 13.59375 -32.398438 15.34375 -33.140625 C 17.09375 -33.890625 19.0625 -34.265625 21.25 -34.265625 C 23.582031 -34.265625 25.738281 -33.804688 27.71875 -32.890625 C 29.707031 -31.984375 31.421875 -30.738281 32.859375 -29.15625 C 34.304688 -27.570312 35.4375 -25.707031 36.25 -23.5625 C 37.070312 -21.414062 37.484375 -19.132812 37.484375 -16.71875 C 37.484375 -14.289062 37.070312 -12.003906 36.25 -9.859375 C 35.4375 -7.710938 34.304688 -5.847656 32.859375 -4.265625 C 31.421875 -2.679688 29.707031 -1.429688 27.71875 -0.515625 C 25.738281 0.390625 23.582031 0.84375 21.25 0.84375 C 18.96875 0.84375 16.960938 0.457031 15.234375 -0.3125 C 13.515625 -1.082031 12.003906 -2.191406 10.703125 -3.640625 L 10.703125 13.84375 Z M 20.703125 -28.109375 C 19.347656 -28.109375 18.0625 -27.882812 16.84375 -27.4375 C 15.632812 -27 14.578125 -26.300781 13.671875 -25.34375 C 12.765625 -24.382812 12.050781 -23.191406 11.53125 -21.765625 C 11.019531 -20.347656 10.765625 -18.664062 10.765625 -16.71875 C 10.765625 -14.613281 11.019531 -12.828125 11.53125 -11.359375 C 12.050781 -9.890625 12.765625 -8.703125 13.671875 -7.796875 C 14.578125 -6.890625 15.632812 -6.222656 16.84375 -5.796875 C 18.0625 -5.378906 19.347656 -5.171875 20.703125 -5.171875 C 22.046875 -5.171875 23.320312 -5.472656 24.53125 -6.078125 C 25.75 -6.691406 26.800781 -7.519531 27.6875 -8.5625 C 28.570312 -9.613281 29.269531 -10.835938 29.78125 -12.234375 C 30.300781 -13.628906 30.5625 -15.125 30.5625 -16.71875 C 30.5625 -18.300781 30.300781 -19.789062 29.78125 -21.1875 C 29.269531 -22.582031 28.570312 -23.789062 27.6875 -24.8125 C 26.800781 -25.84375 25.75 -26.648438 24.53125 -27.234375 C 23.320312 -27.816406 22.046875 -28.109375 20.703125 -28.109375 Z M 20.703125 -28.109375 "></path></g></g><g style="fill:rgb(0%,0%,0%);fill-opacity:1;"><g transform="translate(406.036053, 77.228281)"><path style="stroke:none;" d="M 19.78125 0.84375 C 17.363281 0.84375 15.09375 0.390625 12.96875 -0.515625 C 10.851562 -1.429688 9 -2.679688 7.40625 -4.265625 C 5.820312 -5.847656 4.578125 -7.710938 3.671875 -9.859375 C 2.765625 -12.003906 2.3125 -14.289062 2.3125 -16.71875 C 2.3125 -19.132812 2.738281 -21.414062 3.59375 -23.5625 C 4.457031 -25.707031 5.625 -27.570312 7.09375 -29.15625 C 8.5625 -30.738281 10.273438 -31.984375 12.234375 -32.890625 C 14.191406 -33.804688 16.289062 -34.265625 18.53125 -34.265625 C 20.8125 -34.265625 22.921875 -33.867188 24.859375 -33.078125 C 26.796875 -32.285156 28.472656 -31.046875 29.890625 -29.359375 C 31.316406 -27.679688 32.425781 -25.550781 33.21875 -22.96875 C 34.007812 -20.382812 34.40625 -17.296875 34.40625 -13.703125 L 9.515625 -13.703125 C 9.835938 -12.492188 10.347656 -11.363281 11.046875 -10.3125 C 11.742188 -9.257812 12.570312 -8.347656 13.53125 -7.578125 C 14.488281 -6.816406 15.5625 -6.222656 16.75 -5.796875 C 17.9375 -5.378906 19.179688 -5.171875 20.484375 -5.171875 C 22.253906 -5.171875 23.894531 -5.492188 25.40625 -6.140625 C 26.925781 -6.796875 28.222656 -7.660156 29.296875 -8.734375 L 33.5 -4.546875 C 31.863281 -2.910156 29.867188 -1.601562 27.515625 -0.625 C 25.160156 0.351562 22.582031 0.84375 19.78125 0.84375 Z M 18.53125 -28.109375 C 17.457031 -28.109375 16.441406 -27.894531 15.484375 -27.46875 C 14.523438 -27.050781 13.640625 -26.46875 12.828125 -25.71875 C 12.015625 -24.976562 11.316406 -24.09375 10.734375 -23.0625 C 10.148438 -22.039062 9.71875 -20.925781 9.4375 -19.71875 L 27.125 -19.71875 C 27.03125 -20.832031 26.773438 -21.898438 26.359375 -22.921875 C 25.941406 -23.953125 25.359375 -24.851562 24.609375 -25.625 C 23.867188 -26.394531 22.992188 -27 21.984375 -27.4375 C 20.984375 -27.882812 19.832031 -28.109375 18.53125 -28.109375 Z M 18.53125 -28.109375 "></path></g></g></g></svg> 